# xmcd CD database file
#
# Track frame offsets:
#	187
#	20262
#	38732
#	58787
#
# Disc length: 1031 seconds
#
# Revision: 0
# Processed by: cddbd v1.5PL3 Copyright (c) Steve Scherf et al.
# Submitted via: CDex 1.50beta9
#
DISCID=29040504
DTITLE=やしきたかじん - やっぱ好きやねん
DYEAR=1993
DGENRE=J-POP
TTITLE0=やっぱ好きやねん
TTITLE1=未練
TTITLE2=やっぱ好きやねん　カラオケ
TTITLE3=未練　カラオケ
EXTD=YEAR: 1993
EXTT0=
EXTT1=
EXTT2=
EXTT3=
PLAYORDER=
